<svg width="24" height="24" viewBox="0 0 24 24" fill="none" xmlns="http://www.w3.org/2000/svg">
<path fill-rule="evenodd" clip-rule="evenodd" d="M11.9303 4.19995C13.4548 4.19995 14.6911 5.38068 14.6911 6.8369V7.78942H9.17022V7.71199V7.71193V6.8369C9.17022 5.38068 10.4064 4.19995 11.9303 4.19995ZM8.53659 10.1072V10.161C8.53967 11.7191 9.68057 13.0426 11.2157 13.374V12.5549C10.0377 12.254 9.1699 11.2279 9.1699 10.008V9.71839H8.92741H8.53659V10.1072ZM15.3959 9.71839H15.0056H14.6908V10.008C14.6908 11.1691 13.9044 12.1542 12.8131 12.506V13.3527C14.2996 12.9879 15.3926 11.6866 15.3959 10.161V10.1072V9.71839ZM16.1782 10.1072V10.161C16.1753 12.1332 14.7251 13.7673 12.8131 14.1483V19.8H11.2157V14.165C9.25667 13.8202 7.75703 12.1659 7.75484 10.161V10.1072V8.94127H8.92741H9.1699V8.10256H14.6908V8.94127H15.0056H16.1782V10.1072ZM19.9936 12.8716C19.9936 12.8716 16.6904 12.6675 14.7805 14.5671C12.8708 16.4665 13.0768 19.7518 13.0768 19.7518C13.0768 19.7518 16.3797 19.9573 18.2894 18.0577C20.199 16.1577 19.9936 12.8716 19.9936 12.8716ZM5.71064 18.0577C3.801 16.1577 4.00644 12.8716 4.00644 12.8716C4.00644 12.8716 7.30959 12.6675 9.21958 14.5671C11.1289 16.4665 10.9232 19.7518 10.9232 19.7518C10.9232 19.7518 7.62003 19.9573 5.71064 18.0577Z" fill="black"/>
</svg>
