<svg width="24" height="24" viewBox="0 0 24 24" fill="none" xmlns="http://www.w3.org/2000/svg">
<path fill-rule="evenodd" clip-rule="evenodd" d="M6.84988 5.40002C5.85251 5.40002 5.2 6.05492 5.2 6.91535C5.2 7.75751 5.8336 8.43133 6.81161 8.43133H6.83053C7.84746 8.43133 8.47976 7.75751 8.47976 6.91535C8.4604 6.05492 7.84746 5.40002 6.84988 5.40002ZM18.8 13.3697V18.4H15.8844V13.7068C15.8844 12.5284 15.4635 11.7236 14.4078 11.7236C13.6023 11.7236 13.1237 12.2654 12.9123 12.79C12.8356 12.9775 12.8158 13.2379 12.8158 13.5008V18.3998H9.90003C9.90003 18.3998 9.93917 10.451 9.90003 9.62823H12.816V10.8712C12.8133 10.8758 12.81 10.8804 12.8067 10.8849L12.8067 10.8849C12.8031 10.89 12.7994 10.895 12.7967 10.9H12.816V10.8712C13.2035 10.2749 13.8945 9.42226 15.4437 9.42226C17.3619 9.42226 18.8 10.6759 18.8 13.3697ZM8.28798 18.4H5.37329V9.62823H8.28798V18.4Z" fill="black"/>
</svg>
