<svg width="24" height="24" viewBox="0 0 24 24" fill="none" xmlns="http://www.w3.org/2000/svg">
<path d="M18.3622 8.63889C18.5713 13.2544 15.1277 18.4 9.03122 18.4C7.17737 18.4 5.45268 17.8562 4 16.9251C5.74184 17.1308 7.48025 16.6464 8.85978 15.5667C7.42424 15.5405 6.21159 14.5911 5.79213 13.2875C6.30759 13.3858 6.81506 13.3572 7.27566 13.2316C5.69726 12.914 4.6069 11.4927 4.64233 9.97213C5.08579 10.2178 5.59097 10.3651 6.1293 10.3823C4.66748 9.40547 4.25373 7.47587 5.11322 6.00096C6.73162 7.98654 9.15123 9.29237 11.8794 9.42946C11.4005 7.37761 12.9584 5.40002 15.0785 5.40002C16.0214 5.40002 16.8752 5.79874 17.4741 6.43623C18.2216 6.29 18.9256 6.01581 19.5588 5.63994C19.3131 6.40653 18.7931 7.04859 18.1153 7.4553C18.7793 7.37533 19.4125 7.19939 20 6.93777C19.5611 7.59811 19.0056 8.17619 18.3622 8.63889Z" fill="black"/>
</svg>
