<svg width="24" height="24" viewBox="0 0 24 24" fill="none" xmlns="http://www.w3.org/2000/svg">
<path fill-rule="evenodd" clip-rule="evenodd" d="M18.875 6.18755C19.645 6.40898 20.195 7.01791 20.415 7.73755C20.69 9.12148 20.8 10.5608 20.8 12C20.8 13.4393 20.69 14.8786 20.415 16.2625C20.195 17.0375 19.645 17.5911 18.875 17.8125C17.5 18.2 12 18.2 12 18.2C12 18.2 6.50001 18.2 5.12501 17.8125C4.35501 17.5911 3.80501 16.9822 3.58501 16.2625C3.31001 14.8786 3.20001 13.4393 3.20001 12C3.20001 10.5608 3.31001 9.12148 3.58501 7.73755C3.80501 6.96255 4.35501 6.40898 5.12501 6.18755C6.50001 5.80005 12 5.80005 12 5.80005C12 5.80005 17.5 5.80005 18.875 6.18755ZM14.805 12L10.24 9.34291V14.6572L14.805 12Z" fill="black"/>
</svg>
