<svg width="24" height="24" viewBox="0 0 24 24" fill="none" xmlns="http://www.w3.org/2000/svg">
<path fill-rule="evenodd" clip-rule="evenodd" d="M12 3.19995C9.61008 3.19995 9.31088 3.21022 8.37221 3.25275C5.17635 3.39942 3.40021 5.17262 3.25355 8.37142C3.21028 9.31082 3.20001 9.61002 3.20001 12C3.20001 14.3899 3.21028 14.6898 3.25281 15.6285C3.39948 18.8244 5.17268 20.6005 8.37148 20.7472C9.31088 20.7897 9.61008 20.7999 12 20.7999C14.3899 20.7999 14.6899 20.7897 15.6285 20.7472C18.8215 20.6005 20.602 18.8273 20.7465 15.6285C20.7897 14.6898 20.8 14.3899 20.8 12C20.8 9.61002 20.7897 9.31082 20.7472 8.37215C20.6035 5.17922 18.8281 3.40015 15.6293 3.25348C14.6899 3.21022 14.3899 3.19995 12 3.19995ZM12 4.78615C14.3496 4.78615 14.6283 4.79495 15.5567 4.83748C17.9415 4.94602 19.0554 6.07755 19.1639 8.44475C19.2065 9.37242 19.2145 9.65108 19.2145 12.0007C19.2145 14.351 19.2057 14.629 19.1639 15.5566C19.0547 17.9216 17.9437 19.0554 15.5567 19.1639C14.6283 19.2064 14.3511 19.2152 12 19.2152C9.65041 19.2152 9.37175 19.2064 8.44408 19.1639C6.05341 19.0546 4.94535 17.918 4.83681 15.5559C4.79428 14.6282 4.78548 14.3503 4.78548 12C4.78548 9.65035 4.79501 9.37242 4.83681 8.44402C4.94608 6.07755 6.05708 4.94528 8.44408 4.83675C9.37248 4.79495 9.65041 4.78615 12 4.78615ZM7.48121 12C7.48121 9.50442 9.50448 7.48115 12 7.48115C14.4955 7.48115 16.5188 9.50442 16.5188 12C16.5188 14.4962 14.4955 16.5195 12 16.5195C9.50448 16.5195 7.48121 14.4955 7.48121 12ZM12 14.9333C10.3801 14.9333 9.06668 13.6206 9.06668 12C9.06668 10.38 10.3801 9.06662 12 9.06662C13.6199 9.06662 14.9333 10.38 14.9333 12C14.9333 13.6206 13.6199 14.9333 12 14.9333ZM15.641 7.30295C15.641 6.71995 16.114 6.24695 16.6977 6.24695C17.2807 6.24695 17.753 6.71995 17.753 7.30295C17.753 7.88595 17.2807 8.35895 16.6977 8.35895C16.114 8.35895 15.641 7.88595 15.641 7.30295Z" fill="black"/>
</svg>
