<svg width="24" height="24" viewBox="0 0 24 24" fill="none" xmlns="http://www.w3.org/2000/svg">
<path fill-rule="evenodd" clip-rule="evenodd" d="M5.20001 7.92675C11.1951 7.9531 16.0528 12.7964 16.0707 18.8H18.8C18.783 11.3021 12.7055 5.2263 5.20001 5.19995V7.92675ZM11.4458 18.8C11.411 15.3753 8.62891 12.5967 5.20001 12.5618V9.83585C10.1419 9.8707 14.1403 13.864 14.1769 18.8H11.4458ZM7.04281 18.8C6.02536 18.8 5.20001 17.9763 5.20001 16.9597C5.20001 15.9431 6.02536 15.1195 7.04281 15.1195C8.06026 15.1195 8.88476 15.9431 8.88476 16.9597C8.88476 17.9763 8.06026 18.8 7.04281 18.8Z" fill="black"/>
</svg>
